<mxfile host="app.diagrams.net" modified="2023-11-08T03:29:28.670Z" agent="Mozilla/5.0 (Windows NT 10.0; Win64; x64) AppleWebKit/537.36 (KHTML, like Gecko) Chrome/119.0.0.0 Safari/537.36" etag="9daICSBSzcfNeo5dAyir" version="22.0.8" type="github">
  <diagram id="C5RBs43oDa-KdzZeNtuy" name="Page-1">
    <mxGraphModel dx="836" dy="488" grid="1" gridSize="10" guides="1" tooltips="1" connect="1" arrows="1" fold="1" page="1" pageScale="1" pageWidth="827" pageHeight="1169" math="0" shadow="0">
      <root>
        <mxCell id="WIyWlLk6GJQsqaUBKTNV-0" />
        <mxCell id="WIyWlLk6GJQsqaUBKTNV-1" parent="WIyWlLk6GJQsqaUBKTNV-0" />
        <mxCell id="CtgHsZHEt28m3cHlb7xR-35" style="edgeStyle=orthogonalEdgeStyle;rounded=0;orthogonalLoop=1;jettySize=auto;html=1;" edge="1" parent="WIyWlLk6GJQsqaUBKTNV-1" source="CtgHsZHEt28m3cHlb7xR-0">
          <mxGeometry relative="1" as="geometry">
            <mxPoint x="160" y="210" as="targetPoint" />
          </mxGeometry>
        </mxCell>
        <mxCell id="CtgHsZHEt28m3cHlb7xR-0" value="Start" style="ellipse;whiteSpace=wrap;html=1;" vertex="1" parent="WIyWlLk6GJQsqaUBKTNV-1">
          <mxGeometry x="100" y="100" width="120" height="80" as="geometry" />
        </mxCell>
        <mxCell id="CtgHsZHEt28m3cHlb7xR-36" value="" style="edgeStyle=orthogonalEdgeStyle;rounded=0;orthogonalLoop=1;jettySize=auto;html=1;" edge="1" parent="WIyWlLk6GJQsqaUBKTNV-1" source="CtgHsZHEt28m3cHlb7xR-1" target="CtgHsZHEt28m3cHlb7xR-2">
          <mxGeometry relative="1" as="geometry" />
        </mxCell>
        <mxCell id="CtgHsZHEt28m3cHlb7xR-1" value="nama kendaraan" style="shape=parallelogram;perimeter=parallelogramPerimeter;whiteSpace=wrap;html=1;fixedSize=1;" vertex="1" parent="WIyWlLk6GJQsqaUBKTNV-1">
          <mxGeometry x="100" y="220" width="120" height="60" as="geometry" />
        </mxCell>
        <mxCell id="CtgHsZHEt28m3cHlb7xR-13" value="" style="edgeStyle=orthogonalEdgeStyle;rounded=0;orthogonalLoop=1;jettySize=auto;html=1;" edge="1" parent="WIyWlLk6GJQsqaUBKTNV-1" source="CtgHsZHEt28m3cHlb7xR-2" target="CtgHsZHEt28m3cHlb7xR-3">
          <mxGeometry relative="1" as="geometry" />
        </mxCell>
        <mxCell id="CtgHsZHEt28m3cHlb7xR-2" value="jenis bensin" style="shape=parallelogram;perimeter=parallelogramPerimeter;whiteSpace=wrap;html=1;fixedSize=1;" vertex="1" parent="WIyWlLk6GJQsqaUBKTNV-1">
          <mxGeometry x="100" y="310" width="120" height="60" as="geometry" />
        </mxCell>
        <mxCell id="CtgHsZHEt28m3cHlb7xR-37" value="" style="edgeStyle=orthogonalEdgeStyle;rounded=0;orthogonalLoop=1;jettySize=auto;html=1;" edge="1" parent="WIyWlLk6GJQsqaUBKTNV-1" source="CtgHsZHEt28m3cHlb7xR-3" target="CtgHsZHEt28m3cHlb7xR-15">
          <mxGeometry relative="1" as="geometry" />
        </mxCell>
        <mxCell id="CtgHsZHEt28m3cHlb7xR-3" value="kota yg dituju =&lt;br&gt;jakarta" style="shape=parallelogram;perimeter=parallelogramPerimeter;whiteSpace=wrap;html=1;fixedSize=1;" vertex="1" parent="WIyWlLk6GJQsqaUBKTNV-1">
          <mxGeometry x="100" y="410" width="120" height="60" as="geometry" />
        </mxCell>
        <mxCell id="CtgHsZHEt28m3cHlb7xR-33" style="edgeStyle=orthogonalEdgeStyle;rounded=0;orthogonalLoop=1;jettySize=auto;html=1;exitX=0.5;exitY=1;exitDx=0;exitDy=0;" edge="1" parent="WIyWlLk6GJQsqaUBKTNV-1" source="CtgHsZHEt28m3cHlb7xR-15">
          <mxGeometry relative="1" as="geometry">
            <mxPoint x="159.78947368421052" y="650" as="targetPoint" />
          </mxGeometry>
        </mxCell>
        <mxCell id="CtgHsZHEt28m3cHlb7xR-15" value="kota yg dituju=&lt;br&gt;jakartafor" style="rhombus;whiteSpace=wrap;html=1;" vertex="1" parent="WIyWlLk6GJQsqaUBKTNV-1">
          <mxGeometry x="90" y="505" width="140" height="115" as="geometry" />
        </mxCell>
        <mxCell id="CtgHsZHEt28m3cHlb7xR-16" value="kota yg dituju=&lt;br&gt;bekasi" style="rhombus;whiteSpace=wrap;html=1;" vertex="1" parent="WIyWlLk6GJQsqaUBKTNV-1">
          <mxGeometry x="250" y="505" width="140" height="115" as="geometry" />
        </mxCell>
        <mxCell id="CtgHsZHEt28m3cHlb7xR-17" value="kota yg dituju=&lt;br&gt;tangerang" style="rhombus;whiteSpace=wrap;html=1;" vertex="1" parent="WIyWlLk6GJQsqaUBKTNV-1">
          <mxGeometry x="414" y="505" width="140" height="115" as="geometry" />
        </mxCell>
        <mxCell id="CtgHsZHEt28m3cHlb7xR-18" value="kota yg dituju=&lt;br&gt;bogor" style="rhombus;whiteSpace=wrap;html=1;" vertex="1" parent="WIyWlLk6GJQsqaUBKTNV-1">
          <mxGeometry x="580" y="505" width="140" height="115" as="geometry" />
        </mxCell>
        <mxCell id="CtgHsZHEt28m3cHlb7xR-19" value="Jarak = 20km" style="shape=hexagon;perimeter=hexagonPerimeter2;whiteSpace=wrap;html=1;fixedSize=1;" vertex="1" parent="WIyWlLk6GJQsqaUBKTNV-1">
          <mxGeometry x="100" y="660" width="120" height="30" as="geometry" />
        </mxCell>
        <mxCell id="CtgHsZHEt28m3cHlb7xR-20" value="Jarak = 20km" style="shape=hexagon;perimeter=hexagonPerimeter2;whiteSpace=wrap;html=1;fixedSize=1;" vertex="1" parent="WIyWlLk6GJQsqaUBKTNV-1">
          <mxGeometry x="434" y="660" width="120" height="30" as="geometry" />
        </mxCell>
        <mxCell id="CtgHsZHEt28m3cHlb7xR-21" value="Jarak = 20km" style="shape=hexagon;perimeter=hexagonPerimeter2;whiteSpace=wrap;html=1;fixedSize=1;" vertex="1" parent="WIyWlLk6GJQsqaUBKTNV-1">
          <mxGeometry x="260" y="660" width="120" height="30" as="geometry" />
        </mxCell>
        <mxCell id="CtgHsZHEt28m3cHlb7xR-23" value="Jarak = 20km" style="shape=hexagon;perimeter=hexagonPerimeter2;whiteSpace=wrap;html=1;fixedSize=1;" vertex="1" parent="WIyWlLk6GJQsqaUBKTNV-1">
          <mxGeometry x="600" y="660" width="120" height="30" as="geometry" />
        </mxCell>
        <mxCell id="CtgHsZHEt28m3cHlb7xR-27" style="edgeStyle=orthogonalEdgeStyle;rounded=0;orthogonalLoop=1;jettySize=auto;html=1;exitX=0.625;exitY=1;exitDx=0;exitDy=0;entryX=0.375;entryY=1;entryDx=0;entryDy=0;" edge="1" parent="WIyWlLk6GJQsqaUBKTNV-1" source="CtgHsZHEt28m3cHlb7xR-23" target="CtgHsZHEt28m3cHlb7xR-23">
          <mxGeometry relative="1" as="geometry" />
        </mxCell>
        <mxCell id="CtgHsZHEt28m3cHlb7xR-31" value="pemakaian bensin = jarak /jarak tempuh&lt;br&gt;total harga = pemakaian bensin* harga" style="rounded=0;whiteSpace=wrap;html=1;" vertex="1" parent="WIyWlLk6GJQsqaUBKTNV-1">
          <mxGeometry x="280" y="760" width="240" height="90" as="geometry" />
        </mxCell>
        <mxCell id="CtgHsZHEt28m3cHlb7xR-32" value="" style="endArrow=classic;html=1;rounded=0;" edge="1" parent="WIyWlLk6GJQsqaUBKTNV-1">
          <mxGeometry width="50" height="50" relative="1" as="geometry">
            <mxPoint x="360" y="740" as="sourcePoint" />
            <mxPoint x="410" y="690" as="targetPoint" />
          </mxGeometry>
        </mxCell>
        <mxCell id="CtgHsZHEt28m3cHlb7xR-38" value="nama kendaraan" style="shape=parallelogram;perimeter=parallelogramPerimeter;whiteSpace=wrap;html=1;fixedSize=1;" vertex="1" parent="WIyWlLk6GJQsqaUBKTNV-1">
          <mxGeometry x="320" y="930" width="120" height="60" as="geometry" />
        </mxCell>
        <mxCell id="CtgHsZHEt28m3cHlb7xR-39" value="nama kendaraan" style="shape=parallelogram;perimeter=parallelogramPerimeter;whiteSpace=wrap;html=1;fixedSize=1;" vertex="1" parent="WIyWlLk6GJQsqaUBKTNV-1">
          <mxGeometry x="314" y="1010" width="120" height="60" as="geometry" />
        </mxCell>
        <mxCell id="CtgHsZHEt28m3cHlb7xR-40" value="nama kendaraan" style="shape=parallelogram;perimeter=parallelogramPerimeter;whiteSpace=wrap;html=1;fixedSize=1;" vertex="1" parent="WIyWlLk6GJQsqaUBKTNV-1">
          <mxGeometry x="330" y="860" width="120" height="60" as="geometry" />
        </mxCell>
        <mxCell id="CtgHsZHEt28m3cHlb7xR-41" value="nama kendaraan" style="shape=parallelogram;perimeter=parallelogramPerimeter;whiteSpace=wrap;html=1;fixedSize=1;" vertex="1" parent="WIyWlLk6GJQsqaUBKTNV-1">
          <mxGeometry x="294" y="1090" width="120" height="60" as="geometry" />
        </mxCell>
      </root>
    </mxGraphModel>
  </diagram>
</mxfile>
